<?xml version="1.0" encoding="UTF-8" standalone="no"?>
<!-- Created with Inkscape (http://www.inkscape.org/) -->

<svg width="80" height="80" viewBox="0 0 135.46666 135.46667" version="1.1" id="svg1" xmlns="http://www.w3.org/2000/svg" xmlns:svg="http://www.w3.org/2000/svg">
  <defs id="defs1" />
  <g id="layer1">
    <g id="g6" transform="translate(0.25449871,7.125964)">
      <path id="path1-8" style="fill:none;stroke:#828282;stroke-width:2.42713;stroke-dasharray:none;stroke-opacity:1" d="M 132.18119,95.573039 A 28.988184,14.980471 0 0 1 103.193,110.55351 28.988184,14.980471 0 0 1 74.20482,95.573039 28.988184,14.980471 0 0 1 103.193,80.592567 28.988184,14.980471 0 0 1 132.18119,95.573039 Z" />
      <path d="m 33.435644,13.144303 c -7.916679,0 -14.314292,6.426825 -14.314292,14.372717 0,7.945894 6.397613,14.372718 14.314292,14.372718 7.624551,0 14.314292,-6.426824 14.314292,-14.372718 0,-7.945892 -6.397613,-14.372717 -14.314292,-14.372717 z m 0,25.003783 c -5.869636,0 -10.572873,-4.326976 -10.572873,-10.23424 0,-5.907262 4.703237,-10.648124 10.572873,-10.648124 5.49338,0 10.572873,4.326976 10.572873,10.234239 0,5.907264 -4.703237,10.648125 -10.572873,10.648125 z" id="path4" style="fill:#828282;stroke:#828282;stroke-width:0.0493517;stroke-dasharray:none" />
      <path d="m 33.435644,3.6793432 c -12.473883,0 -22.844441,10.1076438 -22.844441,22.9612918 0,12.824436 22.844441,47.120311 22.844441,47.120311 0,0 22.844441,-34.295875 22.844441,-47.120311 0,-12.882863 -10.370558,-22.9612918 -22.844441,-22.9612918 z M 14.751169,26.788874 c 0,-9.783045 8.152042,-17.9459683 18.684475,-17.9459683 10.532433,0 18.684474,8.1629233 18.684474,17.9459683 0,7.820207 -11.901977,27.417455 -18.684474,38.197498 C 26.620539,54.206329 14.751169,34.640237 14.751169,26.788874 Z" id="path5" style="fill:#828282;stroke:#828282;stroke-width:0.00889947;stroke-dasharray:none" />
      <path style="fill:none;fill-rule:evenodd;stroke:#828282;stroke-width:2.02261;stroke-linecap:butt;stroke-linejoin:round;stroke-dasharray:none;stroke-opacity:1" d="m 58.950045,82.095858 5.074793,1.545871 m 3.636367,1.1077 1.539495,0.468958 m 3.772837,1.149272 5.247329,1.598428" id="path2" />
      <path id="path1" style="display:inline;fill:none;stroke:#828282;stroke-width:2.42713;stroke-dasharray:none;stroke-opacity:1" d="m 40.165719,59.710295 c 13.105917,1.43786 22.938687,7.452413 22.938687,14.653783 0,8.273486 -12.978454,14.98047 -28.988184,14.98047 -16.009731,0 -28.9881836,-6.706986 -28.9881836,-14.98047 0,-7.159048 9.7175416,-13.14519 22.7079686,-14.62796" />
      <path style="fill:none;stroke:#828282;stroke-width:2.02261;stroke-linecap:butt;stroke-linejoin:miter;stroke-dasharray:none;stroke-opacity:1" d="M 89.403475,109.10233 83.21288,111.441" id="path6" />
    </g>
  </g>
</svg>
