<?xml version="1.0" encoding="UTF-8" standalone="no"?>
<!-- Uploaded to: SVG Repo, www.svgrepo.com, Generator: SVG Repo Mixer Tools -->

<svg width="80" height="80" viewBox="0 0 20 20" version="1.1" id="svg1" xmlns="http://www.w3.org/2000/svg" xmlns:svg="http://www.w3.org/2000/svg">
  <defs id="defs1" />
  <g id="layer1">
    <path d="M 3,0 V 4.5585938 L 0,6.8183594 V 20 H 20 V 6.8183594 L 17,4.5585938 V 0 Z M 4,1 H 16 V 9.7617188 L 11.990234,12.783203 10.951172,12 H 9.0488281 L 8.0097656,12.783203 4,9.7617188 Z M 3,5.9921875 v 3.015625 L 0.99804688,7.5 Z m 14,0 L 19.001953,7.5 17,9.0078125 Z M 1,8.7539062 7.1796875,13.410156 1,18.066406 Z m 18,0 v 9.3124998 l -6.179688,-4.65625 z M 9.6230469,13 h 0.7539061 l 7.960938,6 H 1.6621094 Z M 11.971609,2.6614588 c 0.554214,0.2903021 0.994065,0.6949658 1.301962,1.2051939 0.307897,0.5102281 0.466242,1.0732385 0.466242,1.6978282 0,0.4662428 -0.07038,0.8621095 -0.219934,1.1875998 C 13.370321,7.0863681 13.176794,7.3326851 12.92168,7.5086258 12.666567,7.6845665 12.376265,7.76374 12.050773,7.76374 11.778067,7.76374 11.549343,7.710959 11.34701,7.5965957 11.206258,7.517423 11.091897,7.4030621 11.003928,7.2623083 10.959945,7.191932 10.863175,7.1831356 10.819193,7.2535029 10.564079,7.5965872 10.185806,7.763731 9.6755788,7.763731 9.3764795,7.763731 9.0861774,7.6845582 8.8310633,7.517414 8.5671567,7.3590763 8.3560278,7.1303534 8.2064783,6.840051 8.0481316,6.5497489 7.9689582,6.2154616 7.9689582,5.828392 c 0,-0.3782727 0.079173,-0.7125601 0.2287229,-1.0116594 C 8.3560278,4.5264305 8.5583597,4.2977076 8.8222708,4.1393609 9.0861819,3.9810143 9.3676871,3.9018408 9.6755833,3.9018408 c 0.3518817,0 0.6509797,0.087972 0.8885007,0.2727083 0.07918,0.052781 0.184735,-0.087972 0.184735,-0.087972 v 0 c 0,0 0.05279,-0.1143609 0.114358,-0.1143609 h 1.020456 c 0.06157,0 0.114359,0.052781 0.114359,0.1143609 V 6.321026 c 0,0.1671443 0.02639,0.2815052 0.08797,0.3518815 0.06157,0.070376 0.140752,0.1055644 0.246317,0.1055644 0.32549,0 0.483837,-0.3958668 0.483837,-1.196397 0,-0.4838371 -0.114358,-0.9236889 -0.343085,-1.3019614 C 12.244305,3.9018408 11.918815,3.6027416 11.505354,3.3916127 11.091892,3.1804839 10.608055,3.0749194 10.06264,3.0749194 c -0.5366198,0 -1.0204569,0.1143609 -1.4339175,0.3430845 C 8.2064648,3.6467269 7.8897715,3.9722171 7.6522514,4.3768808 7.4235284,4.7815445 7.309167,5.2389906 7.309167,5.7492185 c 0,0.5190253 0.114361,0.9852681 0.3430844,1.3899318 0.2287364,0.4134608 0.5454297,0.7301541 0.9588906,0.9588771 0.4134606,0.2287229 0.8885005,0.3430843 1.425119,0.3430843 0.501431,0 0.976472,-0.096768 1.416323,-0.2903021 0.06157,-0.026392 0.131947,0.00881 0.158341,0.070376 l 0.211129,0.6069954 c 0.01757,0.052781 -0.0088,0.1231574 -0.06157,0.1407526 -0.211129,0.087972 -0.457446,0.1671442 -0.738951,0.2287229 -0.32549,0.070376 -0.65098,0.096768 -0.985268,0.096768 -0.7477476,0 -1.3987283,-0.1583455 -1.9705356,-0.4662431 C 7.5027154,8.5202851 7.0628635,8.0980274 6.7461702,7.5614083 6.4382738,7.0247889 6.2799272,6.4177935 6.2799272,5.7404216 c 0,-0.6685748 0.1583455,-1.2667733 0.466243,-1.8033924 C 7.0628635,3.4004099 7.5027154,2.9781521 8.0745226,2.6702557 8.6463301,2.3623596 9.3061077,2.2040129 10.053857,2.2040129 c 0.721355,0.017589 1.354742,0.1671443 1.917752,0.4574459 z M 10.546491,6.4881696 C 10.687243,6.329824 10.75762,6.118694 10.75762,5.8371889 c 0,-0.2815052 -0.07038,-0.4926341 -0.211129,-0.6509807 -0.140753,-0.1583456 -0.325492,-0.228723 -0.5542142,-0.228723 -0.2287232,0 -0.4046639,0.079173 -0.5454165,0.228723 -0.1407526,0.1583455 -0.2111289,0.3694755 -0.2111289,0.6509807 0,0.2815051 0.070376,0.4926342 0.2111289,0.6509807 0.1407526,0.1583455 0.3166933,0.2375201 0.5454165,0.2375201 0.2287222,0 0.4134612,-0.079173 0.5542142,-0.2375201 z"
       style="fill:#828282;fill-opacity:1;stroke:none;stroke-width:0px"
       id="path1" />
  </g>
</svg>
