<?xml version="1.0" encoding="UTF-8" standalone="no"?>
<!-- Created with Inkscape (http://www.inkscape.org/) -->

<svg
   width="80"
   height="80"
   viewBox="0 0 141.11112 211.66666"
   version="1.1"
   id="svg1"
   xml:space="preserve"
   xmlns="http://www.w3.org/2000/svg"
   xmlns:svg="http://www.w3.org/2000/svg"><defs
     id="defs1" /><g
     id="layer1"
     transform="translate(-69.761803,-42.597921)"><g
       transform="matrix(8.8194444,0,0,8.8194444,-0.79374947,-9027.3187)"
       id="g2"><path
         d="m 16,1028.4 c -4.4183,0 -8,3.5817 -8,8 0,1.421 0.3816,2.75 1.0312,3.906 0.1079,0.192 0.221,0.381 0.3438,0.563 L 16,1052.4 l 6.625,-11.531 c 0.102,-0.151 0.19,-0.311 0.281,-0.469 l 0.063,-0.094 c 0.649,-1.156 1.031,-2.485 1.031,-3.906 0,-4.4183 -3.582,-8 -8,-8 z m 0,4 c 2.209,0 4,1.7909 4,4 0,2.209 -1.791,4 -4,4 -2.2091,0 -4,-1.791 -4,-4 0,-2.2091 1.7909,-4 4,-4 z"
         fill="#e74c3c"
         id="path1"
         style="fill:#ef9e00;fill-opacity:1" /><path
         d="m 16,1031.4 c -2.7614,0 -5,2.2386 -5,5 0,2.761 2.2386,5 5,5 2.761,0 5,-2.239 5,-5 0,-2.7614 -2.239,-5 -5,-5 z m 0,2 c 1.657,0 3,1.3431 3,3 0,1.6569 -1.343,3 -3,3 -1.657,0 -3,-1.3431 -3,-3 0,-1.6569 1.343,-3 3,-3 z"
         fill="#c0392b"
         id="path2"
         style="fill:#ef9e00;fill-opacity:1" /></g></g></svg>
